<?xml version="1.0" encoding="UTF-8" standalone="no"?>
<!DOCTYPE svg PUBLIC "-//W3C//DTD SVG 1.1//EN" "http://www.w3.org/Graphics/SVG/1.1/DTD/svg11.dtd">
<!-- Created with Inkscape (http://www.inkscape.org/) by Marsupilami -->
<svg
   xmlns:svg="http://www.w3.org/2000/svg"
   xmlns="http://www.w3.org/2000/svg"
   version="1.1"
   width="512"
   height="256"
   viewBox="0 0 640 320"
   id="svg3314">

  <defs id="SvgjsDefs1483"></defs>

<rect width="100%" height="100%" fill="#fcf8e0"/>

<g transform="translate(170,5)" >
<g id="SvgjsG1149" featurekey="container1" fill="#FA8072" transform="matrix(3,0,0,3,0,5)">
  <path xmlns="http://www.w3.org/2000/svg" fill="" d="M0 0h100v100H0z"></path>
</g>
<g id="SvgjsG1150" featurekey="text1" fill="#fcf8e0" transform="matrix(1.7810662599832314,0,0,1.7810662599832314,48.75325225916602,121.61679629202425)"><path d="M6.02 13.42 c2.36 0 5.52 1.8 5.1 5.98 l-8.78 0 c0.26 2.28 2.04 3.4 3.92 3.4 c1.44 0 2.36 -0.4 3.14 -1.16 l0.96 0.88 c-0.94 1.12 -2.3 1.68 -4.12 1.68 c-2.68 0 -5.54 -1.8 -5.54 -5.38 c0 -3.6 2.96 -5.4 5.32 -5.4 z M6.02 14.84 c-1.54 0 -3.38 1.1 -3.68 3.34 l7.34 0 c-0.2 -2.24 -2.1 -3.34 -3.66 -3.34 z M20.479999999999997 24 l-3.06 -4.1 l-3.06 4.1 l-1.9 0 l4.02 -5.32 l-3.78 -5.08 l1.88 0 l2.84 3.88 l2.86 -3.88 l1.86 0 l-3.78 5.08 l4.02 5.32 l-1.9 0 z M29.5 13.42 c2.36 0 5.22 1.8 5.22 5.38 c0 3.62 -2.86 5.4 -5.22 5.4 c-1.84 0 -3.26 -1 -3.74 -2.2 l0 5.8 l-1.64 0 l0 -6.52 l0 -7.68 l1.64 0 l0 1.96 c0.48 -1.12 1.9 -2.14 3.74 -2.14 z M29.32 22.74 c1.76 0 3.8 -1.3 3.8 -3.94 c0 -2.62 -2.04 -3.92 -3.8 -3.92 c-1.78 0 -3.64 1.26 -3.64 3.92 c0 2.68 1.86 3.94 3.64 3.94 z M42.06 13.44 c0.18 0 0.34 0 0.5 0.04 l0 1.54 c-0.16 -0.04 -0.34 -0.04 -0.48 -0.04 c-1.98 0 -3.6 1.42 -3.88 3.76 l0 5.26 l-1.64 0 l0 -10.4 l1.64 0 l0 2.74 c0.38 -1.54 1.8 -2.9 3.86 -2.9 z M49.18000000000001 13.42 c2.36 0 5.52 1.8 5.1 5.98 l-8.78 0 c0.26 2.28 2.04 3.4 3.92 3.4 c1.44 0 2.36 -0.4 3.14 -1.16 l0.96 0.88 c-0.94 1.12 -2.3 1.68 -4.12 1.68 c-2.68 0 -5.54 -1.8 -5.54 -5.38 c0 -3.6 2.96 -5.4 5.32 -5.4 z M49.18000000000001 14.84 c-1.54 0 -3.38 1.1 -3.68 3.34 l7.34 0 c-0.2 -2.24 -2.1 -3.34 -3.66 -3.34 z M61.220000000000006 16.12 c-0.4 -0.84 -1.06 -1.36 -2.02 -1.36 c-1 0 -1.68 0.6 -1.68 1.4 c0 0.72 0.38 1.24 1.42 1.62 l1.04 0.36 c1.74 0.62 3.02 1.26 3.02 3.08 c0 1.98 -1.92 3 -3.7 3 c-1.8 0 -3.4 -1.04 -3.78 -2.78 l1.32 -0.4 c0.32 1.14 1.26 1.84 2.46 1.84 c1.04 0 2.08 -0.6 2.08 -1.64 c0 -0.9 -0.62 -1.38 -1.7 -1.76 l-1.16 -0.42 c-1.82 -0.64 -2.6 -1.66 -2.6 -2.9 c0 -1.62 1.44 -2.74 3.24 -2.74 c1.68 0 2.86 0.92 3.42 2.3 z M69.8 16.12 c-0.4 -0.84 -1.06 -1.36 -2.02 -1.36 c-1 0 -1.68 0.6 -1.68 1.4 c0 0.72 0.38 1.24 1.42 1.62 l1.04 0.36 c1.74 0.62 3.02 1.26 3.02 3.08 c0 1.98 -1.92 3 -3.7 3 c-1.8 0 -3.4 -1.04 -3.78 -2.78 l1.32 -0.4 c0.32 1.14 1.26 1.84 2.46 1.84 c1.04 0 2.08 -0.6 2.08 -1.64 c0 -0.9 -0.62 -1.38 -1.7 -1.76 l-1.16 -0.42 c-1.82 -0.64 -2.6 -1.66 -2.6 -2.9 c0 -1.62 1.44 -2.74 3.24 -2.74 c1.68 0 2.86 0.92 3.42 2.3 z M84.94000000000001 22.5 c-1.28 1.1 -2.9 1.7 -4.7 1.7 c-3.64 0 -7.16 -2.96 -7.16 -7.2 s3.52 -7.2 7.16 -7.2 c1.78 0 3.38 0.6 4.64 1.66 l-1.02 1.16 c-0.98 -0.78 -2.24 -1.24 -3.5 -1.24 c-2.86 0 -5.56 2.32 -5.56 5.62 s2.7 5.62 5.56 5.62 c1.28 0 2.56 -0.48 3.54 -1.28 z M101.42000000000002 10 l0 14 l-1.7 0 l0 -10.28 l-4.92 10.28 l-1.36 0 l-4.9 -10.26 l0 10.26 l-1.7 0 l0 -14 l1.64 0 l5.66 11.72 l5.64 -11.72 l1.64 0 z M108.12000000000002 9.76 c2.18 0 3.78 1.44 4.38 2.94 l-1.26 0.68 c-0.64 -1.28 -1.66 -2.12 -3.12 -2.12 c-1.54 0 -2.6 0.88 -2.6 2.1 c0 1.14 0.72 1.86 2.24 2.44 l1.02 0.38 c2.52 0.94 4.1 2.02 4.1 4.24 c0 2.4 -2.3 3.88 -4.68 3.88 s-4.34 -1.44 -4.88 -3.44 l1.34 -0.64 c0.48 1.48 1.74 2.56 3.54 2.56 c1.6 0 2.96 -0.92 2.96 -2.34 c0 -1.6 -1.12 -2.2 -2.78 -2.84 l-1.04 -0.4 c-2.12 -0.8 -3.48 -1.9 -3.48 -3.88 c0 -2.04 1.8 -3.56 4.26 -3.56 z">
</path>
</g>
</g>
</svg>
